# xmcd
#
# Track frame offsets: 
#        150
#        21347
#        38574
#        52521
#        75130
#        94989
#        114326
#        135828
#        158268
#        175708
#
# Disc length: 2664 seconds
#
# Revision: 0
# Processed by: cddbd v1.5.2PL0 Copyright (c) Steve Scherf et al.
# Submitted via: ExactAudioCopy v0.95b4
#
DISCID=580a660a
DTITLE=Frog Holler - Believe It or Not
DYEAR=2009
DGENRE=Alt. Country
TTITLE0=Not Like Us
TTITLE1=To Turn Back Now
TTITLE2=Alibis
TTITLE3=Fundamental Blues
TTITLE4=Honest Bill
TTITLE5=Control Freak (I Know, I Know)
TTITLE6=Strange Powers
TTITLE7=Whiskey Ditch
TTITLE8=Decide
TTITLE9=New Year's Day
EXTD=
EXTT0=
EXTT1=
EXTT2=
EXTT3=
EXTT4=
EXTT5=
EXTT6=
EXTT7=
EXTT8=
EXTT9=
PLAYORDER=
